<svg xmlns="http://www.w3.org/2000/svg" width="200" height="60" viewBox="0 0 200 60">
  <style>
    .text { font: bold 22px sans-serif; fill: #0077B6; }
    .tagline { font: 12px sans-serif; fill: #00B4D8; }
    .icon-path { fill: #0077B6; }
    .accent { fill: #38B000; }
  </style>
  
  <!-- Medical Icon -->
  <g transform="translate(10, 10)">
    <path class="icon-path" d="M20,0 C8.954,0 0,8.954 0,20 C0,31.046 8.954,40 20,40 C31.046,40 40,31.046 40,20 C40,8.954 31.046,0 20,0 Z M20,36 C11.163,36 4,28.837 4,20 C4,11.163 11.163,4 20,4 C28.837,4 36,11.163 36,20 C36,28.837 28.837,36 20,36 Z" />
    <rect class="accent" x="18" y="10" width="4" height="20" rx="2" />
    <rect class="accent" x="10" y="18" width="20" height="4" rx="2" />
  </g>
  
  <!-- Hospital Name -->
  <text class="text" x="60" y="30">Arvindu</text>
  <text class="text" x="60" y="50">Hospitals</text>
  
  <!-- Tagline -->
  <text class="tagline" x="170" y="50">Care for life</text>
</svg>
