<svg width="1440" height="800" viewBox="0 0 1440 800" fill="none" xmlns="http://www.w3.org/2000/svg">
  <path d="M-20 154.25C152.5 70.7482 301.279 -8.74902 582.5 1.24821C863.721 11.2454 923.5 121.248 1136 137.748C1348.5 154.248 1412 80.7482 1500 80.7482" stroke="white" stroke-width="2" stroke-linecap="round"/>
  <path d="M-20 236.25C152.5 152.748 301.279 73.251 582.5 83.2482C863.721 93.2454 923.5 203.248 1136 219.748C1348.5 236.248 1412 162.748 1500 162.748" stroke="white" stroke-width="2" stroke-linecap="round"/>
  <path d="M-20 318.25C152.5 234.748 301.279 155.251 582.5 165.248C863.721 175.245 923.5 285.248 1136 301.748C1348.5 318.248 1412 244.748 1500 244.748" stroke="white" stroke-width="2" stroke-linecap="round"/>
  <path d="M-20 400.25C152.5 316.748 301.279 237.251 582.5 247.248C863.721 257.245 923.5 367.248 1136 383.748C1348.5 400.248 1412 326.748 1500 326.748" stroke="white" stroke-width="2" stroke-linecap="round"/>
  <path d="M-20 482.25C152.5 398.748 301.279 319.251 582.5 329.248C863.721 339.245 923.5 449.248 1136 465.748C1348.5 482.248 1412 408.748 1500 408.748" stroke="white" stroke-width="2" stroke-linecap="round"/>
  <path d="M-20 564.25C152.5 480.748 301.279 401.251 582.5 411.248C863.721 421.245 923.5 531.248 1136 547.748C1348.5 564.248 1412 490.748 1500 490.748" stroke="white" stroke-width="2" stroke-linecap="round"/>
  <path d="M-20 646.25C152.5 562.748 301.279 483.251 582.5 493.248C863.721 503.245 923.5 613.248 1136 629.748C1348.5 646.248 1412 572.748 1500 572.748" stroke="white" stroke-width="2" stroke-linecap="round"/>
  <path d="M-20 728.25C152.5 644.748 301.279 565.251 582.5 575.248C863.721 585.245 923.5 695.248 1136 711.748C1348.5 728.248 1412 654.748 1500 654.748" stroke="white" stroke-width="2" stroke-linecap="round"/>
</svg>